<mxfile host="app.diagrams.net" agent="Mozilla/5.0 (Windows NT 10.0; Win64; x64) AppleWebKit/537.36 (KHTML, like Gecko) Chrome/129.0.0.0 Safari/537.36" version="24.7.17">
  <diagram name="第 1 页" id="temUkVN_BuvwDPNhmD6f">
    <mxGraphModel dx="1687" dy="868" grid="1" gridSize="10" guides="1" tooltips="1" connect="1" arrows="1" fold="1" page="1" pageScale="1" pageWidth="827" pageHeight="1169" math="0" shadow="0">
      <root>
        <mxCell id="0" />
        <mxCell id="1" parent="0" />
        <mxCell id="-E84i89kFe_8swXgUYHA-3" value="" style="group" vertex="1" connectable="0" parent="1">
          <mxGeometry x="580" y="150" width="160" height="310" as="geometry" />
        </mxCell>
        <mxCell id="SQS7vyjTyptjjihE2VLE-18" value="" style="rounded=1;whiteSpace=wrap;html=1;fillColor=#E6E6E6;strokeColor=none;" parent="-E84i89kFe_8swXgUYHA-3" vertex="1">
          <mxGeometry width="160" height="280" as="geometry" />
        </mxCell>
        <mxCell id="SQS7vyjTyptjjihE2VLE-19" style="edgeStyle=orthogonalEdgeStyle;rounded=0;orthogonalLoop=1;jettySize=auto;html=1;entryX=0.5;entryY=0;entryDx=0;entryDy=0;" parent="-E84i89kFe_8swXgUYHA-3" source="SQS7vyjTyptjjihE2VLE-21" target="SQS7vyjTyptjjihE2VLE-25" edge="1">
          <mxGeometry relative="1" as="geometry" />
        </mxCell>
        <mxCell id="SQS7vyjTyptjjihE2VLE-21" value="&lt;font style=&quot;font-size: 20px;&quot; face=&quot;Times New Roman&quot;&gt;BM&lt;/font&gt;" style="rounded=1;whiteSpace=wrap;html=1;fillColor=#dae8fc;strokeColor=#6c8ebf;flipV=1;" parent="-E84i89kFe_8swXgUYHA-3" vertex="1">
          <mxGeometry x="20" y="40" width="120" height="30" as="geometry" />
        </mxCell>
        <mxCell id="SQS7vyjTyptjjihE2VLE-32" style="edgeStyle=orthogonalEdgeStyle;rounded=0;orthogonalLoop=1;jettySize=auto;html=1;entryX=0.5;entryY=0;entryDx=0;entryDy=0;" parent="-E84i89kFe_8swXgUYHA-3" source="SQS7vyjTyptjjihE2VLE-23" target="SQS7vyjTyptjjihE2VLE-29" edge="1">
          <mxGeometry relative="1" as="geometry" />
        </mxCell>
        <mxCell id="SQS7vyjTyptjjihE2VLE-23" value="&lt;font style=&quot;font-size: 20px;&quot; face=&quot;Times New Roman&quot;&gt;BM&lt;/font&gt;" style="rounded=1;whiteSpace=wrap;html=1;fontSize=20;fillColor=#dae8fc;strokeColor=#6c8ebf;flipV=1;" parent="-E84i89kFe_8swXgUYHA-3" vertex="1">
          <mxGeometry x="20" y="160" width="120" height="30" as="geometry" />
        </mxCell>
        <mxCell id="SQS7vyjTyptjjihE2VLE-24" style="edgeStyle=orthogonalEdgeStyle;rounded=0;orthogonalLoop=1;jettySize=auto;html=1;entryX=0.5;entryY=0;entryDx=0;entryDy=0;" parent="-E84i89kFe_8swXgUYHA-3" source="SQS7vyjTyptjjihE2VLE-25" target="SQS7vyjTyptjjihE2VLE-23" edge="1">
          <mxGeometry relative="1" as="geometry" />
        </mxCell>
        <mxCell id="SQS7vyjTyptjjihE2VLE-25" value="&lt;font style=&quot;font-size: 20px;&quot; face=&quot;Times New Roman&quot;&gt;SEBM&lt;/font&gt;" style="rounded=1;whiteSpace=wrap;html=1;fillColor=#fadbc6;strokeColor=#6c8ebf;flipV=1;" parent="-E84i89kFe_8swXgUYHA-3" vertex="1">
          <mxGeometry x="20" y="100" width="120" height="30" as="geometry" />
        </mxCell>
        <mxCell id="SQS7vyjTyptjjihE2VLE-26" style="edgeStyle=orthogonalEdgeStyle;rounded=0;orthogonalLoop=1;jettySize=auto;html=1;entryX=0.5;entryY=1;entryDx=0;entryDy=0;" parent="-E84i89kFe_8swXgUYHA-3" target="SQS7vyjTyptjjihE2VLE-18" edge="1">
          <mxGeometry relative="1" as="geometry">
            <mxPoint x="79.86000000000001" y="260" as="targetPoint" />
            <mxPoint x="79.86000000000013" y="230" as="sourcePoint" />
          </mxGeometry>
        </mxCell>
        <mxCell id="SQS7vyjTyptjjihE2VLE-29" value="&lt;font style=&quot;font-size: 20px;&quot; face=&quot;Times New Roman&quot;&gt;SEBM&lt;/font&gt;" style="rounded=1;whiteSpace=wrap;html=1;fillColor=#fadbc6;strokeColor=#6c8ebf;flipV=1;" parent="-E84i89kFe_8swXgUYHA-3" vertex="1">
          <mxGeometry x="20" y="220" width="120" height="30" as="geometry" />
        </mxCell>
        <mxCell id="SQS7vyjTyptjjihE2VLE-31" style="edgeStyle=orthogonalEdgeStyle;rounded=0;orthogonalLoop=1;jettySize=auto;html=1;entryX=0.5;entryY=0;entryDx=0;entryDy=0;" parent="-E84i89kFe_8swXgUYHA-3" edge="1" target="SQS7vyjTyptjjihE2VLE-21">
          <mxGeometry relative="1" as="geometry">
            <mxPoint x="79.86000000000001" y="3" as="sourcePoint" />
            <mxPoint x="79.86000000000001" y="30" as="targetPoint" />
          </mxGeometry>
        </mxCell>
        <mxCell id="-E84i89kFe_8swXgUYHA-1" value="&lt;font face=&quot;Times New Roman&quot;&gt;&lt;span style=&quot;font-size: 20px;&quot;&gt;(c)&lt;/span&gt;&lt;/font&gt;" style="text;html=1;align=center;verticalAlign=middle;whiteSpace=wrap;rounded=0;" vertex="1" parent="-E84i89kFe_8swXgUYHA-3">
          <mxGeometry x="50" y="280" width="60" height="30" as="geometry" />
        </mxCell>
        <mxCell id="-E84i89kFe_8swXgUYHA-4" value="" style="group" vertex="1" connectable="0" parent="1">
          <mxGeometry x="388" y="150" width="160" height="310" as="geometry" />
        </mxCell>
        <mxCell id="SQS7vyjTyptjjihE2VLE-38" value="" style="rounded=1;whiteSpace=wrap;html=1;fillColor=#fff2cc;strokeColor=none;" parent="-E84i89kFe_8swXgUYHA-4" vertex="1">
          <mxGeometry width="160" height="280" as="geometry" />
        </mxCell>
        <mxCell id="SQS7vyjTyptjjihE2VLE-39" style="edgeStyle=orthogonalEdgeStyle;rounded=0;orthogonalLoop=1;jettySize=auto;html=1;entryX=0.5;entryY=0;entryDx=0;entryDy=0;" parent="-E84i89kFe_8swXgUYHA-4" source="SQS7vyjTyptjjihE2VLE-41" target="SQS7vyjTyptjjihE2VLE-45" edge="1">
          <mxGeometry relative="1" as="geometry" />
        </mxCell>
        <mxCell id="SQS7vyjTyptjjihE2VLE-40" style="edgeStyle=orthogonalEdgeStyle;rounded=0;orthogonalLoop=1;jettySize=auto;html=1;exitX=1;exitY=0.5;exitDx=0;exitDy=0;entryX=1;entryY=0.5;entryDx=0;entryDy=0;" parent="-E84i89kFe_8swXgUYHA-4" source="SQS7vyjTyptjjihE2VLE-41" target="SQS7vyjTyptjjihE2VLE-46" edge="1">
          <mxGeometry relative="1" as="geometry">
            <Array as="points">
              <mxPoint x="80" y="55" />
              <mxPoint x="80" y="20" />
              <mxPoint x="152" y="20" />
              <mxPoint x="152" y="235" />
            </Array>
          </mxGeometry>
        </mxCell>
        <mxCell id="SQS7vyjTyptjjihE2VLE-41" value="&lt;font style=&quot;font-size: 20px;&quot; face=&quot;Times New Roman&quot;&gt;Conv&lt;/font&gt;" style="rounded=1;whiteSpace=wrap;html=1;fillColor=#ffe6cc;strokeColor=none;" parent="-E84i89kFe_8swXgUYHA-4" vertex="1">
          <mxGeometry x="25" y="40" width="110" height="30" as="geometry" />
        </mxCell>
        <mxCell id="SQS7vyjTyptjjihE2VLE-42" style="edgeStyle=orthogonalEdgeStyle;rounded=0;orthogonalLoop=1;jettySize=auto;html=1;entryX=0.5;entryY=0;entryDx=0;entryDy=0;" parent="-E84i89kFe_8swXgUYHA-4" source="SQS7vyjTyptjjihE2VLE-43" target="SQS7vyjTyptjjihE2VLE-46" edge="1">
          <mxGeometry relative="1" as="geometry" />
        </mxCell>
        <mxCell id="SQS7vyjTyptjjihE2VLE-43" value="&lt;font style=&quot;font-size: 20px;&quot; face=&quot;Times New Roman&quot;&gt;Conv&lt;/font&gt;" style="rounded=1;whiteSpace=wrap;html=1;fontSize=20;fillColor=#ffe6cc;strokeColor=none;" parent="-E84i89kFe_8swXgUYHA-4" vertex="1">
          <mxGeometry x="25" y="170" width="110" height="30" as="geometry" />
        </mxCell>
        <mxCell id="SQS7vyjTyptjjihE2VLE-44" style="edgeStyle=orthogonalEdgeStyle;rounded=0;orthogonalLoop=1;jettySize=auto;html=1;entryX=0.5;entryY=0;entryDx=0;entryDy=0;" parent="-E84i89kFe_8swXgUYHA-4" source="SQS7vyjTyptjjihE2VLE-45" target="SQS7vyjTyptjjihE2VLE-43" edge="1">
          <mxGeometry relative="1" as="geometry" />
        </mxCell>
        <mxCell id="SQS7vyjTyptjjihE2VLE-45" value="&lt;font style=&quot;font-size: 20px;&quot; face=&quot;Times New Roman&quot;&gt;ReLU&lt;/font&gt;" style="rounded=1;whiteSpace=wrap;html=1;fillColor=#f8cecc;strokeColor=none;" parent="-E84i89kFe_8swXgUYHA-4" vertex="1">
          <mxGeometry x="25" y="80" width="110" height="30" as="geometry" />
        </mxCell>
        <mxCell id="SQS7vyjTyptjjihE2VLE-46" value="&lt;font face=&quot;Times New Roman&quot; style=&quot;font-size: 40px;&quot;&gt;+&lt;/font&gt;" style="ellipse;whiteSpace=wrap;html=1;aspect=fixed;fillColor=none;" parent="-E84i89kFe_8swXgUYHA-4" vertex="1">
          <mxGeometry x="65" y="220" width="30" height="30" as="geometry" />
        </mxCell>
        <mxCell id="SQS7vyjTyptjjihE2VLE-49" value="" style="endArrow=classic;html=1;rounded=0;entryX=0.5;entryY=0;entryDx=0;entryDy=0;" parent="-E84i89kFe_8swXgUYHA-4" target="SQS7vyjTyptjjihE2VLE-52" edge="1">
          <mxGeometry width="50" height="50" relative="1" as="geometry">
            <mxPoint x="80" y="110" as="sourcePoint" />
            <mxPoint x="112" y="130" as="targetPoint" />
          </mxGeometry>
        </mxCell>
        <mxCell id="SQS7vyjTyptjjihE2VLE-50" value="" style="endArrow=classic;html=1;rounded=0;entryX=0.5;entryY=0;entryDx=0;entryDy=0;exitX=0.5;exitY=1;exitDx=0;exitDy=0;" parent="-E84i89kFe_8swXgUYHA-4" source="SQS7vyjTyptjjihE2VLE-52" target="SQS7vyjTyptjjihE2VLE-43" edge="1">
          <mxGeometry width="50" height="50" relative="1" as="geometry">
            <mxPoint x="112" y="150" as="sourcePoint" />
            <mxPoint x="114" y="150" as="targetPoint" />
          </mxGeometry>
        </mxCell>
        <mxCell id="SQS7vyjTyptjjihE2VLE-52" value="&lt;font style=&quot;font-size: 14px;&quot; face=&quot;Times New Roman&quot;&gt;SEBlock&lt;/font&gt;" style="rounded=1;whiteSpace=wrap;html=1;fillColor=#f8cecc;strokeColor=#b85450;" parent="-E84i89kFe_8swXgUYHA-4" vertex="1">
          <mxGeometry x="89" y="130" width="59" height="20" as="geometry" />
        </mxCell>
        <mxCell id="SQS7vyjTyptjjihE2VLE-54" value="" style="endArrow=classic;html=1;rounded=0;entryX=0.5;entryY=1;entryDx=0;entryDy=0;exitX=0.5;exitY=1;exitDx=0;exitDy=0;" parent="-E84i89kFe_8swXgUYHA-4" source="SQS7vyjTyptjjihE2VLE-46" target="SQS7vyjTyptjjihE2VLE-38" edge="1">
          <mxGeometry width="50" height="50" relative="1" as="geometry">
            <mxPoint x="12" y="190" as="sourcePoint" />
            <mxPoint x="62" y="140" as="targetPoint" />
          </mxGeometry>
        </mxCell>
        <mxCell id="SQS7vyjTyptjjihE2VLE-55" value="" style="endArrow=classic;html=1;rounded=0;exitX=0.5;exitY=0;exitDx=0;exitDy=0;entryX=0.5;entryY=0;entryDx=0;entryDy=0;" parent="-E84i89kFe_8swXgUYHA-4" source="SQS7vyjTyptjjihE2VLE-38" target="SQS7vyjTyptjjihE2VLE-41" edge="1">
          <mxGeometry width="50" height="50" relative="1" as="geometry">
            <mxPoint x="64.99962213943593" y="-59.68000000000001" as="sourcePoint" />
            <mxPoint x="66.50999999999999" y="-70" as="targetPoint" />
          </mxGeometry>
        </mxCell>
        <mxCell id="SQS7vyjTyptjjihE2VLE-57" value="&lt;font face=&quot;Times New Roman&quot;&gt;&lt;span style=&quot;font-size: 20px;&quot;&gt;(b)&lt;/span&gt;&lt;/font&gt;" style="text;html=1;align=center;verticalAlign=middle;whiteSpace=wrap;rounded=0;" parent="-E84i89kFe_8swXgUYHA-4" vertex="1">
          <mxGeometry x="50" y="280" width="60" height="30" as="geometry" />
        </mxCell>
        <mxCell id="-E84i89kFe_8swXgUYHA-5" value="" style="group" vertex="1" connectable="0" parent="1">
          <mxGeometry x="196.25" y="150" width="157.5" height="310" as="geometry" />
        </mxCell>
        <mxCell id="SQS7vyjTyptjjihE2VLE-5" value="" style="rounded=1;whiteSpace=wrap;html=1;fillColor=#D4e1f1;strokeColor=none;" parent="-E84i89kFe_8swXgUYHA-5" vertex="1">
          <mxGeometry width="157.5" height="280" as="geometry" />
        </mxCell>
        <mxCell id="SQS7vyjTyptjjihE2VLE-12" style="edgeStyle=orthogonalEdgeStyle;rounded=0;orthogonalLoop=1;jettySize=auto;html=1;entryX=0.5;entryY=0;entryDx=0;entryDy=0;" parent="-E84i89kFe_8swXgUYHA-5" source="SQS7vyjTyptjjihE2VLE-6" target="SQS7vyjTyptjjihE2VLE-8" edge="1">
          <mxGeometry relative="1" as="geometry" />
        </mxCell>
        <mxCell id="SQS7vyjTyptjjihE2VLE-16" style="edgeStyle=orthogonalEdgeStyle;rounded=0;orthogonalLoop=1;jettySize=auto;html=1;exitX=1;exitY=0.5;exitDx=0;exitDy=0;entryX=1;entryY=0.5;entryDx=0;entryDy=0;" parent="-E84i89kFe_8swXgUYHA-5" source="SQS7vyjTyptjjihE2VLE-6" target="SQS7vyjTyptjjihE2VLE-9" edge="1">
          <mxGeometry relative="1" as="geometry">
            <Array as="points">
              <mxPoint x="78.75" y="65" />
              <mxPoint x="78.75" y="20" />
              <mxPoint x="143.75" y="20" />
              <mxPoint x="143.75" y="235" />
            </Array>
          </mxGeometry>
        </mxCell>
        <mxCell id="SQS7vyjTyptjjihE2VLE-6" value="&lt;font color=&quot;#ffffff&quot; style=&quot;font-size: 20px;&quot; face=&quot;Times New Roman&quot;&gt;Conv&lt;/font&gt;" style="rounded=1;whiteSpace=wrap;html=1;fillColor=#2e75b6;" parent="-E84i89kFe_8swXgUYHA-5" vertex="1">
          <mxGeometry x="23.75" y="40" width="110" height="30" as="geometry" />
        </mxCell>
        <mxCell id="SQS7vyjTyptjjihE2VLE-15" style="edgeStyle=orthogonalEdgeStyle;rounded=0;orthogonalLoop=1;jettySize=auto;html=1;entryX=0.5;entryY=0;entryDx=0;entryDy=0;" parent="-E84i89kFe_8swXgUYHA-5" source="SQS7vyjTyptjjihE2VLE-7" target="SQS7vyjTyptjjihE2VLE-9" edge="1">
          <mxGeometry relative="1" as="geometry" />
        </mxCell>
        <mxCell id="SQS7vyjTyptjjihE2VLE-7" value="&lt;font color=&quot;#ffffff&quot; style=&quot;font-size: 20px;&quot; face=&quot;Times New Roman&quot;&gt;Conv&lt;/font&gt;" style="rounded=1;whiteSpace=wrap;html=1;fontSize=20;fillColor=#2e75b6;" parent="-E84i89kFe_8swXgUYHA-5" vertex="1">
          <mxGeometry x="23.75" y="170" width="110" height="30" as="geometry" />
        </mxCell>
        <mxCell id="SQS7vyjTyptjjihE2VLE-14" style="edgeStyle=orthogonalEdgeStyle;rounded=0;orthogonalLoop=1;jettySize=auto;html=1;entryX=0.5;entryY=0;entryDx=0;entryDy=0;" parent="-E84i89kFe_8swXgUYHA-5" source="SQS7vyjTyptjjihE2VLE-8" target="SQS7vyjTyptjjihE2VLE-7" edge="1">
          <mxGeometry relative="1" as="geometry" />
        </mxCell>
        <mxCell id="SQS7vyjTyptjjihE2VLE-8" value="&lt;font style=&quot;font-size: 20px;&quot; face=&quot;Times New Roman&quot;&gt;ReLU&lt;/font&gt;" style="rounded=1;whiteSpace=wrap;html=1;fillColor=#8faadc;strokeColor=#6c8ebf;" parent="-E84i89kFe_8swXgUYHA-5" vertex="1">
          <mxGeometry x="23.75" y="110" width="110" height="30" as="geometry" />
        </mxCell>
        <mxCell id="SQS7vyjTyptjjihE2VLE-9" value="&lt;font face=&quot;Times New Roman&quot; style=&quot;font-size: 40px;&quot;&gt;+&lt;/font&gt;" style="ellipse;whiteSpace=wrap;html=1;aspect=fixed;fillColor=none;" parent="-E84i89kFe_8swXgUYHA-5" vertex="1">
          <mxGeometry x="63.75" y="220" width="30" height="30" as="geometry" />
        </mxCell>
        <mxCell id="SQS7vyjTyptjjihE2VLE-36" value="" style="endArrow=classic;html=1;rounded=0;exitX=0.5;exitY=0;exitDx=0;exitDy=0;entryX=0.5;entryY=0;entryDx=0;entryDy=0;" parent="-E84i89kFe_8swXgUYHA-5" source="SQS7vyjTyptjjihE2VLE-5" target="SQS7vyjTyptjjihE2VLE-6" edge="1">
          <mxGeometry width="50" height="50" relative="1" as="geometry">
            <mxPoint x="63.75" y="70" as="sourcePoint" />
            <mxPoint x="113.75" y="20" as="targetPoint" />
          </mxGeometry>
        </mxCell>
        <mxCell id="SQS7vyjTyptjjihE2VLE-37" value="" style="endArrow=classic;html=1;rounded=0;exitX=0.5;exitY=1;exitDx=0;exitDy=0;entryX=0.5;entryY=1;entryDx=0;entryDy=0;" parent="-E84i89kFe_8swXgUYHA-5" source="SQS7vyjTyptjjihE2VLE-9" target="SQS7vyjTyptjjihE2VLE-5" edge="1">
          <mxGeometry width="50" height="50" relative="1" as="geometry">
            <mxPoint x="33.75" y="330" as="sourcePoint" />
            <mxPoint x="83.75" y="280" as="targetPoint" />
          </mxGeometry>
        </mxCell>
        <mxCell id="SQS7vyjTyptjjihE2VLE-56" value="&lt;font face=&quot;Times New Roman&quot;&gt;&lt;span style=&quot;font-size: 20px;&quot;&gt;(a)&lt;/span&gt;&lt;/font&gt;" style="text;html=1;align=center;verticalAlign=middle;whiteSpace=wrap;rounded=0;" parent="-E84i89kFe_8swXgUYHA-5" vertex="1">
          <mxGeometry x="48.75" y="280" width="60" height="30" as="geometry" />
        </mxCell>
      </root>
    </mxGraphModel>
  </diagram>
</mxfile>
